<svg width="104" height="24" viewBox="0 0 104 24" fill="none" xmlns="http://www.w3.org/2000/svg">
<path d="M12.0023 17.27L16.1523 19.78C16.9123 20.24 17.8423 19.56 17.6423 18.7L16.5423 13.98L20.2123 10.8C20.8823 10.22 20.5223 9.12001 19.6423 9.05001L14.8123 8.64001L12.9223 4.18001C12.5823 3.37001 11.4223 3.37001 11.0823 4.18001L9.19227 8.63001L4.36227 9.04001C3.48227 9.11001 3.12227 10.21 3.79227 10.79L7.46227 13.97L6.36227 18.69C6.16227 19.55 7.09227 20.23 7.85227 19.77L12.0023 17.27Z" fill="#FFBB0D"/>
<path d="M32.0023 17.27L36.1523 19.78C36.9123 20.24 37.8423 19.56 37.6423 18.7L36.5423 13.98L40.2123 10.8C40.8823 10.22 40.5223 9.12001 39.6423 9.05001L34.8123 8.64001L32.9223 4.18001C32.5823 3.37001 31.4223 3.37001 31.0823 4.18001L29.1923 8.63001L24.3623 9.04001C23.4823 9.11001 23.1223 10.21 23.7923 10.79L27.4623 13.97L26.3623 18.69C26.1623 19.55 27.0923 20.23 27.8523 19.77L32.0023 17.27Z" fill="#FFBB0D"/>
<path d="M52.0023 17.27L56.1523 19.78C56.9123 20.24 57.8423 19.56 57.6423 18.7L56.5423 13.98L60.2123 10.8C60.8823 10.22 60.5223 9.12001 59.6423 9.05001L54.8123 8.64001L52.9223 4.18001C52.5823 3.37001 51.4223 3.37001 51.0823 4.18001L49.1923 8.63001L44.3623 9.04001C43.4823 9.11001 43.1223 10.21 43.7923 10.79L47.4623 13.97L46.3623 18.69C46.1623 19.55 47.0923 20.23 47.8523 19.77L52.0023 17.27Z" fill="#FFBB0D"/>
<path d="M72.0023 17.27L76.1523 19.78C76.9123 20.24 77.8423 19.56 77.6423 18.7L76.5423 13.98L80.2123 10.8C80.8823 10.22 80.5223 9.12001 79.6423 9.05001L74.8123 8.64001L72.9223 4.18001C72.5823 3.37001 71.4223 3.37001 71.0823 4.18001L69.1923 8.63001L64.3623 9.04001C63.4823 9.11001 63.1223 10.21 63.7923 10.79L67.4623 13.97L66.3623 18.69C66.1623 19.55 67.0923 20.23 67.8523 19.77L72.0023 17.27Z" fill="#FFBB0D"/>
<path d="M92.0028 16.686L92.261 16.8422L96.411 19.3522L96.4112 19.3523C96.7908 19.582 97.2556 19.2445 97.1553 18.8133L96.0553 14.0935L95.9868 13.7997L96.2148 13.6021L99.8848 10.4221L99.885 10.422C100.222 10.1305 100.038 9.58303 99.6026 9.54844L99.6 9.54823L94.77 9.13822L94.4695 9.11272L94.3519 8.8351L92.4619 4.3751L92.4612 4.37353C92.2928 3.97217 91.7118 3.97217 91.5433 4.37353L91.5425 4.37547L89.6525 8.82547L89.5347 9.10274L89.2346 9.12822L84.4046 9.53822L84.4019 9.53844L84.4019 9.53844C83.967 9.57303 83.7828 10.1205 84.1195 10.412L84.1197 10.4121L87.7897 13.5921L88.0177 13.7897L87.9492 14.0835L86.8493 18.8033L92.0028 16.686ZM92.0028 16.686L91.7443 16.8417M92.0028 16.686L91.7443 16.8417M91.7443 16.8417L87.5943 19.3417L87.5934 19.3423M91.7443 16.8417L87.5934 19.3423M87.5934 19.3423C87.2138 19.572 86.7491 19.2346 86.8492 18.8035L87.5934 19.3423Z" stroke="#FFBB0D"/>
<path d="M89.5 9.5L92 4.5V16.5L87 19.5L88.25 14.5L84.5 10L89.5 9.5Z" fill="#FFBB0D"/>
</svg>
