<svg width="25" height="24" viewBox="0 0 25 24" fill="none" xmlns="http://www.w3.org/2000/svg">
<path d="M20.3202 12.6562H19.7818C19.4672 10.467 17.7067 8.73858 15.5021 8.47317C16.4368 7.57678 17.0197 6.31612 17.0197 4.92188C17.0197 2.20795 14.8117 0 12.0978 0C9.38388 0 7.17592 2.20795 7.17592 4.92188C7.17592 6.31617 7.75881 7.57678 8.69355 8.47317C6.48897 8.73858 4.72844 10.467 4.41386 12.6562H3.87545C2.59075 12.6562 1.60614 13.7959 1.78713 15.0629L2.96406 23.3952C3.01305 23.7421 3.30995 24 3.6603 24H20.5353C20.8857 24 21.1826 23.7421 21.2316 23.3952L22.4084 15.0639C22.5899 13.7932 21.6025 12.6562 20.3202 12.6562ZM8.58217 4.92188C8.58217 2.98336 10.1593 1.40625 12.0978 1.40625C14.0363 1.40625 15.6134 2.98336 15.6134 4.92188C15.6134 6.86039 14.0363 8.4375 12.0978 8.4375C10.1593 8.4375 8.58217 6.86039 8.58217 4.92188ZM9.2853 9.84375H14.9103C16.6081 9.84375 18.0286 11.0535 18.3553 12.6562H5.84031C6.16699 11.0535 7.58753 9.84375 9.2853 9.84375ZM21.0161 14.8662L19.9245 22.5938H4.27108L3.17941 14.865C3.11875 14.441 3.44631 14.0625 3.87545 14.0625C4.0698 14.0625 20.2388 14.0625 20.3202 14.0625C20.7488 14.0625 21.077 14.44 21.0161 14.8662Z" fill="white"/>
<path d="M12.1017 16.9219C10.9386 16.9219 9.99225 17.8681 9.99225 19.0312C9.99225 20.1944 10.9386 21.1406 12.1017 21.1406C13.2648 21.1406 14.211 20.1944 14.211 19.0312C14.211 17.8681 13.2648 16.9219 12.1017 16.9219ZM12.1017 19.7344C11.714 19.7344 11.3985 19.419 11.3985 19.0312C11.3985 18.6435 11.714 18.3281 12.1017 18.3281C12.4894 18.3281 12.8048 18.6435 12.8048 19.0312C12.8048 19.419 12.4894 19.7344 12.1017 19.7344Z" fill="white"/>
</svg>
