<svg width="25" height="24" viewBox="0 0 25 24" fill="none" xmlns="http://www.w3.org/2000/svg">
<g clip-path="url(#clip0_13_469)">
<path d="M15.8985 0H8.30469C3.78148 0 0.101562 3.67992 0.101562 8.20312V15.7969C0.101562 20.32 3.78148 24 8.30469 24H15.8985C20.4216 24 24.1016 20.32 24.1016 15.7969V8.20312C24.1016 3.67992 20.4216 0 15.8985 0ZM22.6953 15.7969C22.6953 19.5446 19.6462 22.5937 15.8985 22.5937H8.30469C4.55689 22.5937 1.50781 19.5446 1.50781 15.7969V8.20312C1.50781 4.45533 4.55689 1.40625 8.30469 1.40625H15.8985C19.6462 1.40625 22.6953 4.45533 22.6953 8.20312V15.7969Z" fill="white"/>
<path d="M16.2472 10.6358L10.4348 6.75241C9.34565 6.02472 7.88281 6.80725 7.88281 8.11657V15.8833C7.88281 17.2 9.3545 17.9692 10.4349 17.2475L16.2473 13.3641C17.2176 12.7159 17.2204 11.286 16.2472 10.6358ZM15.466 12.1948L9.65366 16.0783C9.49813 16.1821 9.28907 16.0725 9.28907 15.8834V8.11657C9.28907 7.92986 9.49616 7.81643 9.65366 7.92166L15.4661 11.8051C15.6052 11.8981 15.6055 12.1017 15.466 12.1948Z" fill="white"/>
</g>
<defs>
<clipPath id="clip0_13_469">
<rect width="24" height="24" fill="white" transform="translate(0.101562)"/>
</clipPath>
</defs>
</svg>
