<svg width="32" height="33" viewBox="0 0 32 33" fill="none" xmlns="http://www.w3.org/2000/svg">
<path d="M0 2.79228C0 1.52663 1.0587 0.5 2.36474 0.5H29.6353C30.9412 0.5 32 1.52663 32 2.79228V30.2077C32 31.4738 30.9412 32.5 29.6353 32.5H2.36474C1.0587 32.5 0 31.4738 0 30.2077V2.79228Z" fill="#006699"/>
<path fill-rule="evenodd" clip-rule="evenodd" d="M10.1023 27.2874V12.8376H5.29942V27.2874H10.1023ZM7.70082 10.8647C9.37567 10.8647 10.4181 9.75515 10.4181 8.36849C10.3869 6.95062 9.37567 5.87183 7.73259 5.87183C6.08968 5.87183 5.0155 6.95062 5.0155 8.36849C5.0155 9.75515 6.05773 10.8647 7.66951 10.8647H7.70082Z" fill="white"/>
<path fill-rule="evenodd" clip-rule="evenodd" d="M12.7598 27.2874H17.5626V19.218C17.5626 18.7862 17.5938 18.3547 17.7207 18.046C18.0679 17.1831 18.8581 16.2895 20.1849 16.2895C21.9228 16.2895 22.618 17.6146 22.618 19.5571V27.2874H27.4205V19.0021C27.4205 14.5638 25.051 12.4985 21.8911 12.4985C19.3001 12.4985 18.1626 13.9468 17.5307 14.9332H17.5628V12.8376H12.76C12.823 14.1935 12.7598 27.2874 12.7598 27.2874Z" fill="white"/>
</svg>
