<svg width="32" height="33" viewBox="0 0 32 33" fill="none" xmlns="http://www.w3.org/2000/svg">
<path d="M0 2.97001C0 1.70436 1.0587 0.677734 2.36474 0.677734H29.6353C30.9412 0.677734 32 1.70436 32 2.97001V30.3855C32 31.6515 30.9412 32.6777 29.6353 32.6777H2.36474C1.0587 32.6777 0 31.6515 0 30.3855V2.97001Z" fill="#006699"/>
<path fill-rule="evenodd" clip-rule="evenodd" d="M10.1023 27.4651V13.0153H5.29944V27.4651H10.1023ZM7.70084 11.0425C9.37569 11.0425 10.4181 9.93288 10.4181 8.54623C10.3869 7.12835 9.37569 6.04956 7.73262 6.04956C6.08971 6.04956 5.01553 7.12835 5.01553 8.54623C5.01553 9.93288 6.05776 11.0425 7.66954 11.0425H7.70084Z" fill="white"/>
<path fill-rule="evenodd" clip-rule="evenodd" d="M12.7599 27.4651H17.5626V19.3958C17.5626 18.9639 17.5939 18.5325 17.7207 18.2237C18.0679 17.3609 18.8581 16.4672 20.1849 16.4672C21.9229 16.4672 22.6181 17.7923 22.6181 19.7348V27.4651H27.4205V19.1798C27.4205 14.7415 25.051 12.6763 21.8911 12.6763C19.3001 12.6763 18.1627 14.1245 17.5307 15.1109H17.5628V13.0153H12.76C12.823 14.3712 12.7599 27.4651 12.7599 27.4651Z" fill="white"/>
</svg>
