<svg width="64" height="64" viewBox="0 0 64 64" fill="none" xmlns="http://www.w3.org/2000/svg">
<circle cx="32" cy="32" r="31" fill="#20251F" fill-opacity="0.5" stroke="url(#paint0_linear_13_654)" stroke-width="2"/>
<path d="M33.2462 20.0445C33.6587 19.6321 34.2182 19.4004 34.8016 19.4004C35.3849 19.4004 35.9444 19.6321 36.357 20.0445L46.257 29.9445C46.6694 30.3571 46.9011 30.9166 46.9011 31.4999C46.9011 32.0833 46.6694 32.6428 46.257 33.0553L36.357 42.9553C35.942 43.3561 35.3863 43.5778 34.8095 43.5728C34.2326 43.5678 33.6809 43.3364 33.273 42.9285C32.8651 42.5206 32.6337 41.9688 32.6287 41.392C32.6237 40.8152 32.8454 40.2594 33.2462 39.8445L39.2016 33.6999H18.3016C17.7181 33.6999 17.1585 33.4681 16.7459 33.0556C16.3333 32.643 16.1016 32.0834 16.1016 31.4999C16.1016 30.9164 16.3333 30.3569 16.7459 29.9443C17.1585 29.5317 17.7181 29.2999 18.3016 29.2999H39.2016L33.2462 23.1553C32.8337 22.7428 32.602 22.1833 32.602 21.5999C32.602 21.0166 32.8337 20.4571 33.2462 20.0445Z" fill="white"/>
<defs>
<linearGradient id="paint0_linear_13_654" x1="-57" y1="-18.5" x2="71" y2="71.5" gradientUnits="userSpaceOnUse">
<stop stop-color="#7962FA"/>
<stop offset="1" stop-color="#7962FA" stop-opacity="0"/>
</linearGradient>
</defs>
</svg>
