<svg width="64" height="64" viewBox="0 0 64 64" fill="none" xmlns="http://www.w3.org/2000/svg">
<circle cx="32" cy="32" r="31" transform="matrix(-1 0 0 1 64 0)" fill="#20251F" fill-opacity="0.5" stroke="url(#paint0_linear_13_658)" stroke-width="2"/>
<path d="M30.7538 20.0445C30.3413 19.6321 29.7818 19.4004 29.1984 19.4004C28.6151 19.4004 28.0556 19.6321 27.643 20.0445L17.743 29.9445C17.3306 30.3571 17.0989 30.9166 17.0989 31.4999C17.0989 32.0833 17.3306 32.6428 17.743 33.0553L27.643 42.9553C28.058 43.3561 28.6137 43.5778 29.1905 43.5728C29.7674 43.5678 30.3191 43.3364 30.727 42.9285C31.1349 42.5206 31.3663 41.9688 31.3713 41.392C31.3763 40.8152 31.1546 40.2594 30.7538 39.8445L24.7984 33.6999H45.6984C46.2819 33.6999 46.8415 33.4681 47.2541 33.0556C47.6667 32.643 47.8984 32.0834 47.8984 31.4999C47.8984 30.9164 47.6667 30.3569 47.2541 29.9443C46.8415 29.5317 46.2819 29.2999 45.6984 29.2999H24.7984L30.7538 23.1553C31.1663 22.7428 31.398 22.1833 31.398 21.5999C31.398 21.0166 31.1663 20.4571 30.7538 20.0445Z" fill="white"/>
<defs>
<linearGradient id="paint0_linear_13_658" x1="-57" y1="-18.5" x2="71" y2="71.5" gradientUnits="userSpaceOnUse">
<stop stop-color="#7962FA"/>
<stop offset="1" stop-color="#7962FA" stop-opacity="0"/>
</linearGradient>
</defs>
</svg>
