<svg width="51" height="50" viewBox="0 0 51 50" fill="none" xmlns="http://www.w3.org/2000/svg">
<g clip-path="url(#clip0_13_3852)">
<path d="M37.8735 23.8281C38.2578 24.4046 38.6421 24.9811 38.8343 25.9419H32.6851C32.6851 25.7497 32.6851 25.3654 32.8773 24.9811C33.0694 24.5968 33.0694 24.4046 33.4537 24.0203C33.6459 23.6359 34.0302 23.4438 34.4146 23.2516C34.7989 23.0595 35.3754 22.8673 35.9519 22.8673C36.7205 23.0595 37.4892 23.2516 37.8735 23.8281ZM20.1946 22.483C20.5789 22.0986 20.9632 21.5222 20.9632 20.7535C20.9632 20.3692 20.9632 19.9849 20.771 19.6005C20.5789 19.4084 20.3867 19.0241 20.1946 19.0241C20.0024 18.8319 19.6181 18.8319 19.2337 18.6397H14.2375V23.0595H18.4651C19.0416 23.0595 19.6181 22.8673 20.1946 22.483ZM18.6573 25.7497H14.2375V30.9381H18.6573C19.0416 30.9381 19.4259 30.9381 19.8102 30.7459C20.1946 30.7459 20.5789 30.5538 20.771 30.3616C20.9632 30.1695 21.3475 29.9773 21.5397 29.593C21.7319 29.2086 21.7319 28.8243 21.7319 28.44C21.7319 27.4792 21.5397 26.7105 20.9632 26.3262C20.3867 25.9419 19.6181 25.7497 18.6573 25.7497ZM50.364 9.41595V40.5462C50.364 45.7346 46.1364 49.9622 40.9481 49.9622H9.8178C4.62942 49.9622 0.401855 45.7346 0.401855 40.5462V9.41595C0.401855 4.22757 4.62942 0 9.8178 0H40.9481C46.1364 0 50.364 4.22757 50.364 9.41595ZM31.9164 18.4476H39.6029V16.5259H31.9164V18.4476ZM25.7673 28.8243C25.7673 27.6713 25.5751 26.7105 24.9986 25.7497C24.4221 24.9811 23.6535 24.4046 22.5005 24.0203C23.2692 23.6359 24.0378 23.0595 24.4221 22.483C24.8064 21.9065 24.9986 21.1378 24.9986 20.177C24.9986 19.2162 24.8064 18.6397 24.6143 17.8711C24.23 17.2946 23.8456 16.7181 23.4613 16.5259C22.8848 16.1416 22.3083 15.9495 21.5397 15.7573C20.5789 15.373 19.8102 15.373 18.8494 15.373H10.01V34.2049H19.2337C20.0024 34.2049 20.9632 34.0127 21.7319 33.8205C22.5005 33.6284 23.2692 33.2441 23.8456 32.8597C24.4221 32.4754 24.9986 31.8989 25.3829 31.1303C25.5751 30.5538 25.7673 29.7851 25.7673 28.8243ZM32.6851 28.2478H42.4854C42.4854 27.0949 42.4854 26.1341 42.2932 25.1732C42.101 24.2124 41.7167 23.2516 41.1402 22.6751C40.5637 21.9065 39.7951 21.33 39.0264 20.9457C38.0656 20.5613 37.1048 20.177 35.9519 20.177C34.991 20.177 34.0302 20.3692 33.0694 20.7535C32.3008 21.1378 31.5321 21.7143 30.7635 22.2908C30.187 22.8673 29.6105 23.6359 29.4183 24.5968C29.034 25.5576 28.8419 26.5184 28.8419 27.4792C28.8419 28.44 29.034 29.593 29.4183 30.3616C29.8027 31.3224 30.187 32.0911 30.7635 32.6676C31.34 33.2441 32.1086 33.8205 32.8773 34.2049C33.8381 34.5892 34.7989 34.7813 35.7597 34.7813C37.297 34.7813 38.6421 34.397 39.7951 33.6284C40.9481 32.8597 41.7167 31.7068 42.2932 30.1695H39.0264C38.8343 30.5538 38.6421 30.9381 38.0656 31.3224C37.4892 31.7068 36.9127 31.8989 36.144 31.8989C35.1832 31.8989 34.2224 31.7068 33.6459 31.1303C33.0694 30.3616 32.6851 29.4008 32.6851 28.2478Z" fill="#171717"/>
</g>
<defs>
<clipPath id="clip0_13_3852">
<rect width="49.9622" height="49.9622" fill="white" transform="translate(0.401855)"/>
</clipPath>
</defs>
</svg>
